<?xml version="1.0" encoding="utf-8"?>
<!-- Generator: Adobe Illustrator 19.0.0, SVG Export Plug-In . SVG Version: 6.00 Build 0)  -->
<svg version="1.1" id="Layer_1" xmlns="http://www.w3.org/2000/svg" xmlns:xlink="http://www.w3.org/1999/xlink" x="0px" y="0px"
	 viewBox="0 0 1438.2 1161.9" style="enable-background:new 0 0 1438.2 1161.9;" xml:space="preserve">
<g id="XMLID_1_">
	<path id="XMLID_494_" d="M433.9,604.8c-6-2.7-7.6-11.2-5.3-17.4c3.2-8.5,7-16.9,12-24.5c7.9-12,18.3-21.8,30.2-29.9
		c0.9-0.6,1.6-1.5,1.9-3.4c-1.8,0.7-3.7,1.1-5.3,2c-15.4,8.8-27.2,21.1-35.7,36.6c-1.8,3.2-4.1,5.5-7.3,2.9c-2-1.6-3.7-4.8-3.9-7.4
		c-0.5-10,4.9-17.9,11.1-24.9c15.4-17.5,34.5-29.7,56-38.2c20.3-8.1,40.2-7.8,59.5,2.8c14.9,8.1,27.3,18.8,35.7,33.8
		c0.5,1,1.3,1.8,2,2.7c0.1,0.1,0.3,0,0.5,0.1c0.8-5.8-0.1-7.6-14.7-28.9c4.7,3,9.5,6,14.2,9.1c0.5-0.8,1-1.6,1.5-2.5
		c-9-6.4-17.9-12.8-26.9-19.2c0-0.2,0-0.4,0-0.6c6.7,2.3,13.3,4.7,20,7c0.3-0.4,0.6-0.8,0.8-1.2c-1.9-1.5-3.7-3.2-5.8-4.3
		c-15.9-8.2-32.8-12.1-52-10.8c12.3-11.3,20-24.4,25.1-39.2c0.7,0.2,1.3,0.4,2,0.6c-0.9,6-1.9,12-3,19.5
		c8.1-6.4,12.5-13.5,14.3-21.8c1.3-5.7,2.1-12,1-17.7c-4.8-24.3-10.2-48.5-15.8-72.7c-1.8-7.6-5-14.7-7.6-22.1
		c-0.3-0.9-0.3-1.9,0.5-3.4c0.7,0.8,1.7,1.4,2.1,2.3c3.5,9.5,7.7,18.8,10.1,28.6c4.4,17.9,7.5,36.1,11.4,54.2c0.9,4,3.3,7.7,4,11.8
		c0.7,3.8,0.3,7.9,0.3,11.9c0,2.9-0.1,5.9,0.3,8.9c6.8-11.1,11.8-23,11.6-36.1c-0.2-11.9-1.6-23.8-2.6-35.7
		c-0.5-5.8-1.6-11.6-1.5-17.3c0.1-5.5-2-10-4.7-14.4c-3.2-5.4-6.5-10.8-9.7-16.2c-0.9-1.5-1.6-3-1.8-4.9c6.8,5.3,9.9,13.3,14.9,20.6
		c2.4-7.1,4.8-13.7,6.8-20.4c0.3-0.9-0.6-2.5-1.4-3.4c-7.1-8.1-14.2-16.2-21.5-24.1c-0.9-1-3.8-1.6-4.8-0.9
		c-15.4,10.5-32.1,11.1-49.6,7.1c-1-0.2-1.9-0.5-2.6-0.7c-3.2,3.8-6.2,7.7-9.5,11.1c-1.3,1.4-3.5,2.3-5.4,2.5
		c-0.6,0.1-1.9-2.8-2.2-4.4c-1-5.1-1.4-10.2-2.5-15.2c-0.4-1.7-1.7-3.6-3.2-4.5c-12-7.2-25.3-9.9-39.1-8.6
		c-4.9,0.4-9.6,3.1-14.4,5.1c-6.4,2.6-12.8,5.3-19.1,8.3c-1.7,0.8-3.3,2.6-4,4.4c-1.7,4.3-2.7,8.9-4.5,13.2
		c-1.8,4.2-4.7,4.9-7.7,1.5c-3.1-3.5-5.2-7.9-8.2-12.6c-2.6,0.1-6.3,0.8-9.8,0.4c-8.7-1-17.4-2.1-25.9-3.9c-3.5-0.7-5.8-0.4-8.1,2.2
		c-2.1,2.4-4.8,4.2-7.3,6.3c-0.4-0.4-0.8-0.7-1.2-1.1c2.7-3.4,5.5-6.8,7.6-9.4c-7.1-5.6-14-10.9-21.4-16.7
		c-44.8,29.7-83.9,66.9-115.8,111.7c-0.4-0.3-0.9-0.6-1.3-0.8c1.4-2.5,2.7-5,4.3-7.4c12.5-18.8,27.2-35.6,43.2-51.5
		c6.6-6.5,13.4-12.8,20-19.4c1-1,1.3-2.7,1.9-4c-1.4-0.1-2.8-0.6-4.1-0.4c-6.9,1.1-13.7,2.6-20.6,3.4c-2.3,0.3-4.9-1.2-7.3-1.8
		c0.1-0.5,0.2-1,0.3-1.5c5.3-0.8,10.7-1.5,16-2.3c1.8-0.3,3.8-0.6,5.3-1.5c4.5-2.7,8.4-2.4,12.2,1.4c0.8,0.8,3.3,1,4.2,0.3
		c13.6-9.9,27.1-20,40.4-29.9c-2-6.6-4.1-13.5-6.4-21c-7,2.9-14.7,6-22.2,9.3c-29.5,12.9-56.9,29.5-83.8,46.9
		c-7.8,5.1-12.8,12-16.8,20.3c-8.5,17.7-15.3,35.7-15,55.7c0.1,7.5,1.2,15,2.8,22.5c4.7-12.6,6.7-26.1,15.6-36.9
		c-5.3,28.7-5.5,56.5,11,82.1c1.8-9.9,1-20.2,5.8-29.5c1.8,18.1,6.3,35,19.3,50.1c0.3-4.4,0.5-7.4,0.7-10.4c0.3,0,0.5-0.1,0.8-0.1
		c2.1,5.9,4.1,11.7,6.4,18.1c-16.8-3.2-33-3.2-49.1,2.2c4.3,0.1,8.6,0.2,12.9,0.3c26.2,0.3,51.4,5.3,75,17.1
		c17.3,8.6,32.3,20.5,46.2,33.7c12.3,11.6,24,23.8,35.3,36.4c6.5,7.3,11.2,16.3,11.4,26.4c0.1,3.7-2.1,7.7-4.1,11
		c-1.6,2.6-3.9,2.8-5.8-1c-6.5-13.2-15-25-25.9-34.9c-1.5-1.3-3.2-2.3-4.9-3.5c-0.3,0.4-0.7,0.7-1,1.1c1,1.3,2,2.7,3.1,4
		c11.3,12.7,21.4,26.2,28,42c1.8,4.4,3,9.2,3.5,13.9c0.9,9.5-7.8,16.9-17.1,15c-1.2-0.2-2.9-1.8-3-2.8
		c-2.2-22.4-12.9-40.4-28.3-56.1c-1.1-1.1-2.4-1.8-4.5-1.8c3.1,4.4,6.3,8.7,9.3,13.1c8.1,12,15,24.6,18.4,38.8
		c0.6,2.6,0.8,5.3,0.9,7.9c0.3,9.3-5.2,14.7-14.4,14.1c-5.8-0.4-11.2-2-15.3-6.3c-4.1-4.3-8.1-8.7-11.9-13.3
		c-1.1-1.4-1.5-3.7-1.7-5.6c-1.5-15.7-9.6-27.9-19.8-39.1c-0.7-0.7-1.9-1-3.6-0.7c0.9,1.3,1.7,2.5,2.6,3.8c8.5,11.5,14.6,24,17,38.3
		c1.6,9.6-5.3,16.4-14.8,14.3c-6.6-1.5-12.2-5.1-15.9-10.5c-6.2-8.9-12.4-18-17.2-27.7c-6.3-12.7-16.2-19.1-29.7-21.1
		c-9.3-1.4-18.5-2.9-27.9-4.3c1.6,4,1.6,4,21.1,10.1c-9.6,2.1-18.9,4.2-28.3,6.2c0,0.4,0,0.9-0.1,1.3c7.1,0.2,14.2,0.9,21.3,0.6
		c7.9-0.3,15.8-1.4,23.8-1.9c1.7-0.1,3.5,0.5,5.4,1.4c-18.5,16-39.9,26.1-64,28.4c-24.9,2.4-46.8-7.1-66.6-22.9
		c2.4,9.2,15.5,18.9,37.2,28.1c-7.8,1.8-35.7-5.6-50.8-13.5c2,3.9,8.8,9.4,17,13.2c18.3,8.5,37.4,10.2,57.3,8.1
		c25.6-2.7,48.9-11.6,70.9-24.5c3.7,6.4,7.1,12.9,11.2,19c6.9,10.3,15.8,18.3,27.8,22.4c8.1,2.8,16.1,2.9,23.6-1.5
		c3.6-2.1,5.4-1.1,8,1.3c8,7.3,17,12.1,28.4,10.6c7.3-0.9,13.1-4.2,17.8-9.9c1.2-1.5,3.2-3.2,5.1-3.4c19.1-2.2,27.9-16.4,29.5-33.4
		c0.1-1.1,0.2-2.3,0.3-4c11.1,7.6,22.2,14.3,35.3,16.2c0.2-0.4,0.5-0.8,0.7-1.2c-5.5-5.4-10.9-10.9-16.4-16.3
		c0.4-0.4,0.7-0.9,1.1-1.3c5.1,3.1,10.1,6.4,15.3,9.4c5.3,3,10.8,5.5,18.6,5.6c-5.5-5.7-10.1-10.5-14.7-15.2c0.8-1,1.5-2,2.3-2.9
		c1,1.3,1.7,2.9,3,3.9c10.8,7.8,23,10,35.9,7.6c8.3-1.6,16.6-3.7,24.9-5.3c2.3-0.4,5-0.2,7.2,0.5c12.9,4,25.1,3.5,36.7-4
		c1.9-1.2,4.7-1.8,6.9-1.5c27.5,3.4,54.1,10.2,79,22.7c4,2,7,1.9,10.9,0c23.1-11.1,47.3-18.6,73.1-19.7c6.6-0.3,13.2,0.4,19.8,0.8
		c1.5,0.1,2.9,0.7,4.3,2c-18.4,1.4-36.9,0.2-54.6,6.6c9.1,0.2,18.2,0.4,27.3,0.5c17.2,0.1,34.1,1.8,50.4,7.3
		c0.8,0.3,1.8,0.2,2.3,0.7c0.9,0.7,1.4,1.7,2.1,2.6c-1,0.2-2.1,0.6-3,0.4c-8.3-1.7-16.5-3.7-24.8-5.2c-5-0.9-10.1-1.1-15.3-0.9
		c17.2,5.3,34.6,9.9,50.3,18.7c-0.2,0.5-0.4,1-0.5,1.5c-10.4-3.2-20.8-6.3-31.2-9.5c-0.2,0.5-0.4,1.1-0.6,1.6
		c3.1,1.5,6.3,2.8,9.2,4.6c8.1,4.9,16,10.1,24.1,15.1c2.7,1.6,3.5,3.4,2.5,6.5c-5.5,16.3-10.9,32.7-16.3,49
		c-0.8,2.3-1.4,4.6-1.3,7.4c7.1-5.8,9.4-14.9,14.7-23c-1.3,8.2-2.8,15.4-3.5,22.8c-0.7,7.1-0.5,14.3-0.6,21.5
		c0.6,0.1,1.1,0.1,1.7,0.2c0.3-1.2,0.7-2.3,0.9-3.5c3.9-21.6,8.9-43.2,11.4-65c2.3-19.8,1.5-39.9,3-59.9
		c1.4-19.1,5.1-37.8,15.3-54.6c2.3-3.8,5-7.5,8.1-10.7c5.5-5.5,11.1-4.9,16,1.3c0.4,0.5,0.9,0.8,1.6,1.4c3-6.8,5.3-13.9,9-20
		c5.1-8.3,11.2-16,17.1-23.8c1.4-1.9,3.8-3.2,5.9-4.4c10.5-6.4,15.8-4.7,20.2,6.5c0.4,1.1,0.7,2.2,1,3.3c1.9,7.5,1.9,7.5,8.4,3.7
		c6.8-4,12.2-2.9,16.9,3.4c6.9,9.2,7.5,19.9,7.3,30.8c0,0.8,0,1.6,0,2.8c1.3-0.3,2.3-0.4,3.1-0.7c8.7-3.2,12.4-1.1,14.8,7.8
		c3.3,12.5,2.7,25.1-0.7,37.3c-8.4,29.9-14.7,60.2-18,91.1c-1.4,13.5-0.4,26.7,1.2,40.1c3.9,33-0.1,64.6-19.3,92.8
		c-4.1,6-9.5,11-14.4,16.5c-0.4,0.5-1.3,0.6-2.4,0.6c27.1-30.1,36.4-65.5,32.2-105.1c-0.4,1.6-0.8,3.2-1.1,4.8
		c-4.4,22.3-9.3,44.5-19.6,65c-9.1,18-21.3,32.8-41.1,39.9c-11.6,4.2-23.3,4.9-35.2,1.4c-1.5-0.4-3.1-0.8-4.9-1.3
		c5.9,10,28.4,14.1,46.7,8.5c-6.6,24.6-13.2,48.7-25.5,71c-30.8-12-58.4-29.1-85.9-46.8c8,12.1,19.7,19.9,30.9,28.6
		c-23.9-10.4-47.8-20.8-71.7-31.3c-0.4,0.6-0.7,1.2-1.1,1.8c0.8,0.8,1.5,1.8,2.4,2.3c28.9,16.9,58,33.4,88.8,46.5
		C838,964.7,905.2,977.7,975,977c28.5-0.3,56.9-2.9,85.3-4.9c38.9-2.8,77.7-6.8,116.6-9c52.8-2.9,105.3,1,156.6,14.7
		c27.9,7.5,54.9,17.6,78.8,34.1c7.6,5.2,14.1,12,20.8,18.3c1.8,1.7,2.9,4.3,4.3,6.4c0.2,1,0.4,2,0.6,2.9
		c-0.5,6.7-4.2,10.6-10.4,12.5c-1.7,0.5-3.2,1.4-4.8,2.1c-1,0.2-2,0.4-2.9,0.6c-9.7,0.6-19.5,1.7-29.2,1.7
		c-27.1-0.2-54.3-1.5-81.4-1.1c-22.5,0.3-45,2.1-67.4,3.7c-23.5,1.7-46.6,6.2-69.2,12.4c-21.6,5.9-43,12.8-64.3,19.8
		c-21.7,7.2-43.2,15.1-64.9,22.5c-20.1,6.9-40,14.5-60.5,19.9c-27.2,7.2-54.7,13.2-82.3,18.6c-16.4,3.3-33.2,5.1-49.9,6.6
		c-31.7,2.8-63.4,3.7-95.2,2.2c-39.6-1.9-78.8-6-117.7-13.7c-13-2.6-25.5-7.3-38.2-11.1c-2.8-0.8-5.5-1.6-8.3-2.5
		c-0.1,0.3-0.2,0.6-0.3,0.8c3.4,2.4,6.8,4.7,10.2,7.1c-0.3,0.6-0.7,1.3-1,1.9c-23.7-6.6-46.5-16.4-69.7-24.4
		c-23.3-8.1-46.5-16.7-70.1-24.5c4.9,8.4,14.4,9.9,22.5,14.9c-15.2-1.3-29.8-2.6-44.3-3.8c-0.1,0.8-0.2,1.6-0.4,2.4
		c22.9,5,45.9,10,68.8,15c0,0.3,0,0.7,0.1,1c-8.1,1.3-16.1,2.8-24.2,3.7c-19.1,2-38.3,4.6-57.5,5.3c-23.3,0.9-46.7,0.9-70,0.1
		c-39.2-1.3-78-5.7-115.6-17.5c-47.9-15-90.6-39-125.7-75.4c-25.2-26.1-44.7-56.1-59.2-89.3c-11.1-25.3-20.4-51.2-26-78.4
		c1,30.2,9.2,58.9,19.8,87c-0.9,0.3-1.8,0.5-2.7,0.8c-2.4-6-5.6-11.8-7.2-18c-4.6-17.9-9.8-35.7-12.6-53.9
		c-2.9-18.4-3.8-37.3-4.4-56c-0.7-25.3-0.4-50.6-0.3-75.9c0-5.5,1-11.1,1-16.7c-12.3,44.8-12.2,90.4-7.7,136.3
		c-0.6,0.1-1.1,0.1-1.7,0.2c-0.5-2.2-1.1-4.5-1.5-6.7c-7.4-48.4-3.6-96,8.7-143.2c5.9-22.5,10.3-45.4,15.4-68.1
		c-0.4-0.1-0.8-0.3-1.1-0.4c-3.5,8.2-7.2,16.3-10.5,24.6c-3.4,8.5-6.7,17-9.6,25.6c-2.8,8.5-5.3,17.1-7.6,25.7
		c-2.3,8.7-4.3,17.6-7.4,26.4c0-1.7-0.3-3.5-0.1-5.2c3-24.2,9.8-47.4,18.9-69.9c7.6-18.6,15.7-37,23.1-55.7
		c8.3-20.9,13.6-42.4,15.1-65c1.8-27.4,6.2-41.9,18.5-71.3c-6.2,9.3-12.4,18.6-18.6,28c2.9-19.4,15.4-33.9,25.4-50.6
		c-5.3,3.2-9.9,6-14.5,8.8c-0.5-0.6-1-1.1-1.6-1.7c34.9-29.5,61.8-64.2,71.4-111c-10.5,10.8-20.4,21-30.3,31.3
		c-0.4-0.2-0.7-0.5-1.1-0.7c0.8-1.2,1.3-2.6,2.3-3.7c9.3-9.9,18.7-19.8,28-29.7c1.3-1.4,3-2.9,3.5-4.7c9.1-30.6,18-61.3,27.3-93.1
		c-21.7,7.9-41.3,18.6-62,27.1c1.3-0.8,2.4-1.8,3.8-2.5c18.7-9.2,37.4-18.3,56-27.6c2-1,4.1-3,4.8-5c8.6-22.6,17-45.3,25.6-68
		c1.1-2.8,0.2-4.1-1.6-5.9c-8.8-9.4-14.6-20.5-14.9-33.3c-0.6-21.6,17.7-35.8,39.2-30.8c7,1.6,13.6,5.2,20.2,8.2
		c2.6,1.2,4.8,3.3,7.6,4.4c-3.5-8.9-10.1-14.6-18.6-18.9c28.4-30,62.5-49.5,103.2-59.6c-12.9-12.2-27.6-20.8-41.9-29.7
		c0.2-0.4,0.4-0.8,0.6-1.2c3.2,1.5,6.7,2.6,9.6,4.5c11.2,7.5,22.1,15.4,33.3,22.9c1.6,1.1,3.8,2,5.7,1.7c11.8-1.4,23.7-3.1,36.1-4.8
		c-5.6-16.6-14.5-31.8-22.8-47.2c0.4-0.3,0.7-0.5,1.1-0.8c0.9,1.1,2,2.1,2.7,3.4c7.2,13.9,14.2,27.9,21.5,41.8
		c0.7,1.4,2.8,2.9,4.2,2.9c43,0.1,85.6,3.9,127.2,15.4c4.1,1.1,5.5,0.2,7.4-3.5c8.1-15.5,16.8-30.6,25.2-45.9
		c0.5-0.9,1.2-1.6,1.9-2.3c0.2-0.2,0.6,0,1.3-0.1c-9.3,17.8-18.6,35.4-28.1,53.5c8.6,4.2,15.9,7.9,23.5,11.2c1,0.4,3.1-0.7,4.3-1.6
		c15.2-12.7,32-22.9,50.1-30.9c2.3-1,4.6-1.8,7-2.6c0.2-0.1,0.5,0.3,1.7,0.9c-21.2,10-41,21.3-57.4,36.2c11.5,9.9,24.2,18.9,34.5,30
		c10.4,11.1,18.4,24.4,27.9,37.3c2.9-0.6,7.1-1.9,11.3-2.4c17.3-2,25.3,8.8,25.7,24.1c0.3,11-4.8,19.8-11.9,27.6
		c-3.1,3.4-6.3,6.7-9.4,10.1c-0.5-0.1-1.1-0.2-1.6-0.4c-0.3-3.2-0.9-6.5-0.9-9.7c0-3.3-0.4-6-3.6-8.1c-3.2-2.1-2-4.8,0.3-7
		c2.5-2.5,5-5,7.6-7.4c-0.4-0.5-0.7-0.9-1.1-1.4c-3.3,1.8-6.5,3.7-10.2,5.8c-0.6-0.6-1.7-1.5-2.7-2.5c-10.9-11.9-23.1-14.2-37.7-7.1
		c-2.4,1.1-5.2,1.2-8.8,2c-2.3,4-4.7,9.6-8.4,14.3c-4.3,5.4-10.7,4.8-17.2,4c2.7,2.3,5.5,4.5,8.2,6.8c9.7,8.5,17.5,18.5,23.4,30
		c1.4,2.7,3,4,6.3,4.3c12.3,1.2,24.6,2.8,37.7,4.4c0-6.5-0.1-13.2-0.1-19.9c0.3-0.2,0.7-0.3,1-0.5c0.8,1.5,2.1,3,2.4,4.6
		c0.7,4.1,1.5,8.3,1.3,12.4c-0.2,4.3,1.5,5.7,5.4,6.6c37.5,8.5,72.2,23.7,104.5,44.3c5.2,3.3,9.9,7.3,14.8,11
		c0.7,0.5,1.1,1.4,1.3,2.6c-38.5-26.4-80.2-45.3-125.6-55.8c-1.2,9.8-2.6,19.2-3.5,28.7c-0.1,1.3,1.7,3.4,3.1,4.3
		c12.3,7.7,24.9,14.9,36.9,22.9c16.6,11.1,31.4,24.5,45.1,39.2c1,1.1,1.7,2.4,2,3.8c-13.8-11.6-27-23.8-41.4-34.5
		c-14.3-10.7-29.7-20-45.6-30.5c-0.8,5.7-1.3,9.6-1.8,13.6c-0.3,0-0.6,0-0.9,0.1c-0.5-2.2-1-4.5-1.5-6.7c-0.3,0-0.5,0-0.8,0
		c-1.7,5.9-3.5,11.7-4.9,17.7c-0.2,1,1.4,2.8,2.6,3.8c25.2,19.8,47.5,42.7,67,67.9c11.2,14.5,20.7,30.3,30.9,45.5
		c0.2,0.4,0.3,0.9-0.2,1.8c-28.1-43.4-62-81.5-102.4-115c-4.8,9-9.5,17.5-13.7,26.3c-0.6,1.2,1.1,3.9,2.3,5.5
		c13.1,17.3,24.8,35.5,34.4,55.1c2,4,3.7,8.2,4.7,12.7c-12.9-22.5-25.7-45-42.5-66.3c-0.8,2.5-1.5,4-1.7,5.7
		c-2.8,18,0.2,35.2,6.6,52.2c4.6,12.3,8.4,24.8,12.5,37.3c0.2,0.5-0.1,1.2-0.3,2.8c-6.2-5.4-11.8-10.4-17.6-15.4
		c-1.7,14.4,3.4,27.4,9.3,40.2c-0.6,0.3-1.1,0.6-1.7,0.8c-3.3-4.7-6.6-9.4-10.4-14.8c-1.1,12.8-0.3,24.6,2.9,36.1
		c5.6,20.1,17.7,36.8,28.7,54.1c7,11,12.6,22.8,18.5,34.4c1.1,2.2,1.2,5,0.6,8c-4.4-8.3-8.9-16.7-13.3-25c-0.3,0.2-0.6,0.3-1,0.5
		c2.9,10.2,6,20.4,8.8,30.7c2.7,10.1,4.3,20.4,3.6,30.9c-0.6,0.1-1.2,0.2-1.8,0.3c-1.2-5.6-2.4-11.2-3.7-16.7
		c-0.5,0.1-0.9,0.1-1.4,0.2c-0.3,4.3-0.3,8.7-1,12.9c-1,6-2.6,11.9-3.9,17.9c-0.7,3.1-2.1,3.4-5,2c-17.8-8.7-36.3-15.7-55.7-19.7
		c-6.9-1.4-13.9-2.2-22.1-3.5c2.5-3.7,4.3-6.9,6.7-9.5c1.1-1.1,3.4-1.6,5.1-1.5c3.4,0.2,6.7,0.9,10,1.5c0.2-0.6,0.4-1.2,0.6-1.9
		c-3.3-1.7-6.7-3.4-11-5.6c5.5-1.9,10.4-3.5,15.8-5.4c-0.9-1.2-1.3-2-1.7-2.1c-7.3-0.8-14.6-1.6-20.3,4.7
		c-5.9,6.5-11.7,13.2-18.1,19.2c-6.4,6-14.1,9.4-23.2,7.4c-6.9-1.6-9.6-5.1-6.5-11.4c4.6-9.3,10.7-17.9,16.4-26.6
		c2.1-3.2,4.9-5.9,7.4-8.9c-0.3-0.3-0.6-0.7-0.9-1c-1.3,0.8-2.9,1.3-4,2.3c-9.9,8.5-17.4,18.7-22.3,30.8c-1.3,3.2,0.2,7.3-4.4,9.7
		c-8.2,4.3-16.1,8.3-25.8,6.7c-5.8-1-6.7-5.7-8.1-9.4c-4.4,1-8.5,2.5-12.7,2.6c-3.3,0-6.6-1.9-9.9-2.9c4.2-2.4,5.3-7.6,2.5-11.8
		C432,596.2,432.4,600.4,433.9,604.8z M529.1,271c0.3-0.4,0.5-0.8,0.8-1.3c1.4,0.7,2.9,1.3,4.1,2.2c5.6,4.5,10.9,9.2,16.6,13.5
		c1.2,0.9,4.1,1.3,4.9,0.6c3.8-3.5,7.2-7.4,11.3-11.8c-11.1-6.4-21.2-12.1-31.3-17.9c0.4-0.7,0.7-1.4,1.1-2.1
		c10,5.3,19.9,10.5,30.7,16.2c0.9-4.8,1.6-8.6,2.4-12.5c0.7-3.7-0.5-5.8-4.3-6.8c-7.4-1.9-14.6-4.2-21.9-6.4
		c-4.8-1.4-9.5-2.9-14.3-4.3c0.2-0.7,0.3-1.3,0.5-2c12.4,3.2,24.8,6.4,37.2,9.5c-1.5-4.5-3.7-8-5.7-11.5c-3-5.1-6.9-8-13.4-7.3
		c-4.2,0.4-8.6-0.4-12.9-0.7c0-0.5,0-1.1,0-1.6c5.5-0.1,11-0.2,17.4-0.3c-1.6-1.7-2.6-3-3.8-3.9c-13.4-10.3-24.6-22.6-34.7-36.1
		c-7.4-10-16.8-18-28.1-23.4c-13.2-6.3-26.9-10.4-41.7-8.1c-21.7,3.4-39.3,14.3-53.8,30.6c-3.5,4-6.7,8.3-10.1,12.3
		c-11.3,13.1-26.9,18.2-42.9,22.5c-3.2,0.9-6.2,2.1-9.3,3.2c0.1,0.3,0.2,0.6,0.3,0.9c13.6,0.5,27.3,1.1,40.9,1.6c0,0.6,0,1.2,0,1.8
		c-1.5,0.2-3.1,0.5-4.6,0.5c-10.7-0.1-21.5-0.1-32.2-0.5c-10.1-0.4-18.2,2.6-23.1,12c-1.8,3.4-3.5,6.9-5.3,10.3
		c-0.6-0.2-1.2-0.4-1.7-0.5c1.6-6.5,3.3-13,4.9-19.8c-1.2,0-2.6-0.2-3.8,0c-21.8,4-43.5,8.2-65.3,12c-6,1.1-10.4,3-10.5,10
		c0,0.6-0.8,1.2-1.7,2.5c-0.7-3.2-1.2-5.5-1.9-8.5c-6.3,1.8-12.1,4.2-18.1,4.9c-9,1.1-12.3,7.1-14.9,14.4c-1.4,3.9-3,7.7-4.5,11.5
		c0.4,0.2,0.9,0.5,1.3,0.7c6.8-6.3,13.6-12.6,20.4-18.9c0.4,0.3,0.8,0.7,1.2,1c-10.1,21.9-27.4,40.1-33.4,64
		c0.5,0.4,1.1,0.8,1.6,1.2c7.4-8.2,14.8-16.4,22.2-24.5c0.2,0.1,0.5,0.3,0.7,0.4c-1.5,3.2-3,6.5-5,10.8c2-0.9,2.8-1.2,3.5-1.6
		c19.2-11.4,38-23.3,57.5-34c34-18.7,70.2-31.4,108.5-37.8c1.3-0.2,2.7,0,4.1,0c-0.5,1.4-1.1,1.8-1.7,1.9
		c-18.1,4.8-36.3,9.7-54.4,14.5c-3,0.8-4,2.2-2.4,5c2.3,4,4.6,8,7.1,11.8c1.3,2.1,3,2.3,5.5,1c8.1-4.4,16.4-8.5,24.7-12.5
		c3.6-1.7,7.4-2.9,11.2-4.3c0.2,0.4,0.4,0.9,0.5,1.3c-12.3,6.3-24.6,12.7-36.9,19c0,0.6,0,1.2,0,1.7c6.2,3.4,12.5,6.7,18.7,10.2
		c3,1.7,5.3,0.9,7.6-1.3c5-4.6,10-9.2,15.1-13.7c1.2-1,2.6-1.7,4-2.6c0.2,0.4,0.5,0.7,0.7,1.1c-6.5,6.2-13,12.4-20,19.1
		c2.4,0.5,4,0.9,5.5,1.3c16.7,3.6,33.1,1,49.1-3.9c14-4.3,27.2-10.4,38.6-19.9c4.1-3.4,7.1-7.3,8.3-12.6c0.6-2.6,1.6-5.2,2.4-7.8
		c0.8,2.8,1,5.5,0.4,8c-1,4.5,0.3,7.8,3.6,10.9c18.4,16.7,39.3,27.6,64.5,29c9.9,0.5,19.4-0.8,29-5.8C543,283.1,536.1,277,529.1,271
		z M328.7,777.1c0.1-0.6,0.1-1.3,0.2-1.9c-1.6-0.8-3.2-1.7-4.8-2.4c-12.8-5.5-26.2-8.2-40-8.7c-4.4-0.2-6.7-1.8-9-5.3
		c-12-18.7-24.2-37.2-40.7-52.5c-9.7-8.9-20.4-14.8-34.3-11.7c-1.7,0.4-4-1.1-5.7-2.2c-5.3-3.4-10.3-7.4-15.8-10.4
		c-6-3.4-12.8-4.4-19.1-1.2c-4.4,2.2-8.1,2.1-12.6,0.7c-12.9-4.1-23.9,2.1-27.7,15.3c-2.5,8.9-1.8,17.8,0.7,26.5
		c1.5,5.3,1.9,10.1-1,15.3c-1.7,2.9-2.2,6.6-2.7,10c-2.8,16.4,1.4,32,5.9,47.5c0.8,2.6,0.9,4-1.3,5.9
		c-18.8,15.8-31.5,35.8-40.1,58.6c-0.4,1.1-0.4,2.4-0.6,3.6c0.4,0.1,0.9,0.3,1.3,0.4c6.2-9.7,12.5-19.5,18.7-29.2
		c-3.6,11.9-8.4,23-11.7,34.5c-4.8,16.9-5.7,31.5-3.7,34.8c5.1-16,10-32.6,15.8-48.8c6.1-16.7,16.2-31.2,27.9-45
		c0.9,1.2,1.6,2.1,2.1,3.1c11.8,20.7,24.9,40.6,39.9,59.2c3.6,4.5,7.4,9,9.9,14.2c3.7,7.7,6.2,16.1,9.6,24
		c2.9,6.8,6.4,13.4,9.7,20.1c0.7-0.3,1.4-0.5,2.1-0.8c-3.2-10.5-6.5-20.9-10-32.2c7.6,10.3,14.5,20,21.8,29.3c7.2,9.2,15,18,25.1,24
		c-10.1-15.8-20-31.6-31.1-46.5c-16.2-21.9-33.5-43.1-49.9-65c-17.9-23.9-30.3-50.2-32.5-80.4c-0.7-9.4-0.5-19,8-25.9
		c0.9-0.7,0.8-3.3,0.4-4.8c-1.4-5.8-3.9-11.5-4.5-17.3c-0.5-5.8,0.1-11.9,1.7-17.5c1.8-6.4,7.6-8.7,13.9-6.4c3.1,1.1,6,2.8,8.8,4.5
		c2.6,1.6,4.3,2.1,6.5-1c3.9-5.3,6.9-6,13-3.2c4.8,2.3,9.3,5.2,13.5,8.3c4.6,3.4,8.9,7.3,13.6,11.2c3.9-5.7,8.2-3.9,12.6-1.7
		c12.9,6.6,21.4,17.6,29.5,29c17.3,24.3,34.3,48.7,52.1,72.6c12.2,16.3,26,31.4,38.3,47.7c13.5,17.9,23.9,37.3,27.2,60
		c3,21.1-2.6,39-18.8,53.3c-1,0.9-1.9,1.9-2.8,2.8c0.3,0.3,0.6,0.7,0.9,1c8.8-3,14.6-9.9,21.6-16.1c-3.2,8.1-6.5,16.2-9.7,24.3
		c0.4,0.3,0.8,0.5,1.2,0.8c1.4-1.2,3-2.2,4.2-3.6c10.3-11.6,15.3-25.6,17.4-40.6c3.7-26.3-3.6-50.2-17.2-72.5
		c-13-21.2-29.9-39.2-45.7-58.1c-7.7-9.2-14.9-18.8-22.9-29c28.4,4.1,51.7,18,76.1,29.2c-17.3-14.2-36.3-25.3-57.4-32.8
		C314.3,773,321.2,778.1,328.7,777.1z M229.3,231.7c0.5,0.2,0.9,0.3,1.4,0.5c0.1,2.5,0.2,5,0.3,7.4c1,0,1.2,0,1.3,0
		c25.1-4.3,50.2-8.5,75.2-12.9c1.2-0.2,2.4-1.5,3.3-2.5c3.5-4,6.3-8.7,10.3-12c10.7-8.6,21.9-16.6,32.8-24.8c3.1-2.4,6.1-5,9.1-7.5
		c-8.6,1.6-16.4,6.6-25,2.6c-8.9-4.2-9.8-13.4-11.5-21.8c-0.7-0.2-1.4-0.5-2.1-0.7c-0.6,2.6-1.3,5.1-2.2,8.7
		c-2.6-2.2-3.7-3.3-4.9-4.1c-23-15.8-47.1-16-71.8-4.6c-16,7.3-27.7,19.7-38.1,33.5c-1.6,2.2-3.2,4.3-5.4,7.3
		c3.1-0.3,4.9-0.4,7.7-0.7c-3.7,9.7-7.2,18.7-10.7,27.8c10.3-7.3,15.5-19.3,26.7-25.4c-10.1,15.2-21.8,29.4-28.3,48
		c3.3-1.2,5.3-2.4,7.4-2.6c4.9-0.4,5.7-3.7,6.9-7.5c2-6.1,4.7-12,7.4-17.7c0.8-1.6,3-2.6,4.5-3.9c0.4,0.4,0.8,0.8,1.2,1.2
		c-3.5,7.9-9.9,14.8-10.1,23.9C223.9,244.8,226.6,238.2,229.3,231.7z M881.3,642.7c-2.3-10.9-5.8-13.1-15.9-10.8
		c-3.6,0.8-5.8-0.2-6.6-3.9c-0.3-1.3-0.5-2.6-0.9-3.9c-2.4-6.7-6.1-12.5-13.7-13.6c-7.3-1-12.3,3.3-15.6,9.3
		c-2,3.6-3.4,7.5-4.8,11.4c-1.9,5-4,6.1-9.1,4.3c-5.5-1.9-9.5-0.7-12.3,4.2c-5.3,9.1-6.2,18.7-2.4,28.6c3.8,9.9,10.2,11.3,17.5,3.6
		c3.2-3.4,6.1-7.1,9.6-10.1c8.5-7.4,17.7-7.8,26.7-1.2c3.2,2.3,5.9,5.3,8.8,8.1c5.7,5.4,12.2,4.4,15.8-2.7
		C882,658.4,882.1,650.1,881.3,642.7z M181.1,814.8c3.8,10.4,9.8,20.4,21.1,25.8c7.6,3.6,13.5-0.7,13-9.2c-0.2-3.5-0.7-6.9-1.2-10.4
		c-1.2-9.1,2.6-22.2,16.6-23.4c5.1-0.4,10.2,0,15.3,0c6.1,0,9.9-5.3,7.5-10.8c-3.1-7.2-7.7-13.1-14.7-17c-5.6-3.1-9.6-3-13.5,1.3
		c-3.2,3.6-5.3,2.5-8.7,0.1c-4.8-3.4-10-6.6-15.6-8.2c-6.8-2-12.3,1.5-14.4,8.1c-2.3,7-1.5,13.8,2.3,20.1c3.6,5.9,3.5,7.2-2.5,10.5
		C180.8,804.9,179.6,807.6,181.1,814.8z M986.6,1111.2c-75.4,11-150.8,22.2-227.4,18.1C836.3,1139.1,911.9,1130.5,986.6,1111.2z
		 M574.5,230.9c0.9,6.8,1.7,12.8,2.6,18.8c0.2,1.1,1,2.7,1.9,3.1c9.2,4,18.5,7.9,28.7,12.1c1.8-9.4,3.4-18.3,5.3-28.1
		C599.6,234.8,587,232.8,574.5,230.9z M596.7,294.7c-9-6.2-17.7-12.2-26.3-18c-4.6,5.5-8.6,10.4-12.8,15.5c8.2,9,16.5,18,25.3,27.5
		C587.5,311.3,592,303.2,596.7,294.7z M851.6,532.1c-0.7,1.6-1.5,2.6-1.7,3.6c-1.2,7.4-4.8,13.6-9.4,19.5c-3.6,4.5-6.9,9.4-9.4,14.6
		c-1.9,3.9-2.8,8.4-3.3,12.8c-0.5,4.5,2.3,6.7,6.6,5.1c3.3-1.3,6.8-3.2,9-5.8c8.5-10.4,13.4-22.5,13.3-36.1
		C856.7,541.3,857.2,535.7,851.6,532.1z M571.5,273.4c8.6,5.8,17.3,11.7,26.7,18.1c2.8-8.1,5.3-15.4,8-23.3
		c-9.9-4.3-19.5-8.4-29.2-12.6C575,262,573.2,267.7,571.5,273.4z M860,588.7c0.4,0.1,0.9,0.3,1.3,0.4c1,4.8,3,6.1,7.4,4.1
		c2.8-1.3,5.8-3.5,7.5-6c5-7.6,7.1-16.4,6.8-25.5c-0.1-3.8-1.6-7.7-2.7-11.4c-0.3-1-1.8-1.8-2.9-2.1c-0.4-0.1-1.5,1.5-1.9,2.5
		c-3.6,7.6-7.3,15.1-10.5,22.8C862.8,578.4,861.6,583.7,860,588.7z M61.2,815.2c-0.6-21.9-2.4-44.5-1.5-67.1
		c0.9-22.3,4.6-44.6,7.1-66.7C53.4,697.8,49.5,795.7,61.2,815.2z M152.2,698.8c-0.2,0.5-0.4,1-0.6,1.6c0.8,1.4,1.4,3,2.4,4.2
		c5.8,6.7,9.9,14.3,12.4,22.9c1.5,5.3,4.2,10.4,6.9,15.3c0.8,1.5,3.7,3.2,5.1,2.8c1.5-0.4,2.7-2.9,3.7-4.7c0.5-0.9,0.4-2.2,0.5-3.4
		c1-13.1-13-32.2-23.9-38C156.9,698.5,154.4,698.9,152.2,698.8z M148.7,743.3c-0.3,0.7-0.6,1.3-1,2c1.8,2.5,4.3,4.8,5.1,7.7
		c1.8,6.6,2.5,13.6,4.2,20.3c1.4,5.7,3,11.5,5.7,16.7c2.4,4.5,5.7,3.7,7.7-1.2c0.5-1.2,0.9-2.5,1.1-3.8c1.9-15.2-2.8-28.1-14.3-38.3
		C155.1,744.7,151.6,744.3,148.7,743.3z M371.3,164.2c0.4-1.3,0.9-2.3,0.9-3.3c0-11.4-3.1-21.5-13.4-27.8
		c-9.7-5.9-19.7-4.5-29.3,0.6c-8.4,4.5-8.7,10.6-1.2,16.3c4-2.6,7.6-5.8,11.8-7.4c12.7-4.9,19.1-5.1,25.8,7.4
		C368.1,154.4,369.4,159.2,371.3,164.2z M801.8,576.1c0.7,10.3-3.2,18.4-8.3,26.4c-2,3.2-3,7.3-3.5,11.1c-0.3,2.6,1.1,5.5,1.8,8.3
		c3.2-1.1,6.4-2,9.4-3.2c0.9-0.4,1.5-1.7,2.1-2.7c5.9-9.4,7.7-19.7,5.7-30.5C808.4,581.9,808,577,801.8,576.1z M543.5,1088.4
		c18.8,13.3,109.9,28,118.7,19C621.9,1104.1,582.2,1098.9,543.5,1088.4z M567.6,909.7c36,17.5,68.2,38.8,99.4,61.6
		C655.3,952.7,582.5,906.6,567.6,909.7z M560.7,155.3c7.1-10.9,7.8-13.9-4.3-18.1c-16.4-5.7-30.6,8.5-31.2,25.7
		c0,1.3,0.3,2.5,0.4,3.8c3.9-7.6,6.3-15.3,14.3-19.4C549.8,142.3,554.7,150.2,560.7,155.3z M180.2,701.1c4.7,9.6,8.5,17.4,12.4,25.2
		c2.3,4.6,4.5,9.2,7.3,13.5c0.8,1.3,3.4,1.4,5.1,2.1c0.6-1.6,1.9-3.4,1.7-4.9c-1.3-13.1-6.3-24.4-17.2-32.3
		C187.1,702.9,183.8,702.4,180.2,701.1z M146.5,1017.8c-6.8-11-13.9-21.4-19.8-32.5c-5.8-10.9-10.2-22.4-15.2-33.7
		C108.9,969.7,131.9,1012.1,146.5,1017.8z M896.2,580.2c-0.7-0.3-1.5-0.6-2.2-0.8c-2.4,4.4-5.4,8.5-7.2,13.1
		c-2.6,6.7-4.1,13.7,0.6,20.3c1.9,2.6,4,3.8,6,0.1C899.2,602.3,899.4,591.3,896.2,580.2z M413.7,936.8c0.6-0.1,1.1-0.1,1.7-0.2
		c0-1.8,0.4-3.8-0.1-5.5c-2.8-10.4-4.9-21.1-9.1-31c-4.1-9.4-10.3-17.9-15.8-26.7c-1-1.6-2.9-2.7-4.5-4c-0.5,0.4-0.9,0.8-1.4,1.2
		C397.2,891.3,407,913.4,413.7,936.8z M502.3,758.6c-0.2-14.1-38.1-51.6-53.7-53C468.6,721.2,487.1,738.2,502.3,758.6z M232.6,744.5
		c-1.3-3.1-1.8-5.5-3.2-7.3c-4.4-5.7-9-11.2-13.7-16.5c-0.7-0.7-2.8-0.7-3.9-0.2c-0.6,0.3-0.7,2.4-0.4,3.5c0.5,2.1,1.2,4.2,2.3,6
		c3.6,6.2,7.2,12.4,11.4,18.3c1,1.4,4.1,1.3,6.3,1.9C231.7,748,232.2,745.9,232.6,744.5z M408.3,885.9c0.4-0.3,0.9-0.6,1.3-0.9
		c-1.3-2.6-2.5-5.2-3.9-7.7c-8.7-15.6-19.6-29.5-33.9-40.4c-2-1.5-4.4-2.5-6.6-3.8c0,0.2,0,0.5,0,0.7
		C379.5,851.3,393.9,868.6,408.3,885.9z M75.5,721.3c-7.2,7.5-6.7,66.6,0.7,73.2C76,770.2,75.8,745.8,75.5,721.3z M404.3,1114.5
		c0-0.5,0-1,0.1-1.5c-25-0.8-49.9-1.6-74.9-2.4C354.2,1117.8,379.2,1119.2,404.3,1114.5z M101.3,917.5c-7.2,10.7-0.2,55.3,7.6,63.7
		C106.3,959.5,103.9,939,101.3,917.5z M497.9,721.8c13,17.6,26.3,35.5,39.4,53.1C536.8,761.4,509.3,724.1,497.9,721.8z M496.3,547.5
		c-0.2-0.4-0.5-0.7-0.7-1.1c-0.8,0.1-1.7,0-2.3,0.3c-17.3,11-30.6,25.4-37.4,45c-0.7,1.9-0.2,4.2-0.2,6.4c0.5,0.2,1,0.3,1.5,0.5
		C465.5,578,479.4,561.6,496.3,547.5z M137.8,448.7c-13.9,3.1-35.8,46.3-30.7,61.4C113,486.8,122.5,466.7,137.8,448.7z M713,1125.2
		c-20.3-2-40.5-3.9-60.8-5.9C662.6,1126.7,704.2,1130.6,713,1125.2z M94.6,902.7c-6.6,7.9-7.7,43.7-2.7,53.3c0.5,0,1,0,1.5,0
		C93.8,938.3,94.2,920.5,94.6,902.7z M602.9,901.4c16.1,9.3,31.8,18.5,47.5,27.6C643.9,917.5,610.2,898.4,602.9,901.4z M190,1064.5
		c11.4,8.3,43.5,6.4,47.2-2.3c-7.7,1.1-15.3,2.7-22.9,3C206.5,1065.7,198.7,1064.9,190,1064.5z M380.4,60.2c3.5,16,7,32,10.5,48
		c0.6-0.1,1.1-0.3,1.7-0.4C392.6,91,387.2,75.5,380.4,60.2z M123.5,505c6.6-13.3,12.7-25.6,18.8-37.9
		C132.9,470.7,123.1,489.9,123.5,505z M263.2,1066.5c-12,4-24.4,8.2-36.9,12.4C237.3,1082.9,261.3,1074.4,263.2,1066.5z M580.2,938
		c5.2,7.2,28.4,21.9,32.9,21.1C603,949.9,593,941.7,580.2,938z M376,108.8c-0.2-9.6-19.1-35-25.8-36.9
		C358.6,83.8,367.3,96.3,376,108.8z M559.5,835.3c1.5-11.1-9-34.2-14.8-34.3C549.7,812.5,554.6,823.9,559.5,835.3z M512.8,110.6
		c0.5,0.4,1,0.8,1.5,1.3c7.8-9.7,15.6-19.5,23.4-29.2C526.9,89.9,518.3,98.9,512.8,110.6z M590.2,390.8c-0.4,0.1-0.9,0.3-1.3,0.4
		c-0.3,11.5,3.8,21.3,12.2,29.4C597.5,410.7,593.9,400.8,590.2,390.8z M486.9,312c0.4,0.1,0.9,0.3,1.3,0.4c2.8-3.7,5.6-7.4,8.7-11.4
		c-4.4-1.9-7.9-3.4-12.5-5.5C485.3,301.8,486.1,306.9,486.9,312z M87.9,772.6c0.8,0,1.7,0,2.5,0c-0.4-9.9-0.9-19.8-1.3-29.7
		c-0.7,0-1.4,0-2.1,0.1C84.8,752.9,85.4,762.8,87.9,772.6z M398,299.8c-4.7,1-8.5,1.9-13.2,2.9c2.5,4.3,4.7,8,6.8,11.7
		c0.6-0.1,1.2-0.1,1.8-0.2C395,309.5,396.4,304.8,398,299.8z M512.2,74.4c-0.4-0.1-0.8-0.3-1.2-0.4c-5.3,10.7-9.6,21.8-10,33.8
		c0.6,0.2,1.1,0.3,1.7,0.5C505.8,96.9,509,85.7,512.2,74.4z M369.5,823.5c6.9,8.1,17.9,15.9,20.9,15
		C386.6,831.3,375.6,823.2,369.5,823.5z M545.8,163.9c0.6-1.5,2.1-3.6,1.9-5.5c-0.3-3.1-2.8-5.3-6-4.1c-1.7,0.7-3.8,3.3-3.7,5.1
		C538,163,540.9,164.2,545.8,163.9z M351.4,159c0.8-0.1,1.6-0.2,2.4-0.3c1.1-2.3,3.1-4.6,2.9-6.7c-0.2-1.5-3.3-2.7-5.1-4.1
		c-1.4,2.1-3.6,4.2-4,6.5C347.3,155.6,350,157.4,351.4,159z M258.8,1084.1c7.3,2.4,16.1-1.9,17.5-8.3
		C270.4,1078.7,265,1081.2,258.8,1084.1z M461.4,611.1c3.8-5.3,4.8-10,3-13.9C459.9,599.5,458.7,604.5,461.4,611.1z M222.7,154
		c0.4-0.3,0.7-0.7,1.1-1c-0.9-5.2-5.9-9.4-12.7-8.9C215,147.4,218.9,150.7,222.7,154z M324.9,657.8c4.3-2.9,3.7-6.2,2.8-9.4
		c-0.3-1.1-1.7-2-2.5-3c-0.7,1.2-2.1,2.4-2.1,3.5C323.3,651.6,324.2,654.3,324.9,657.8z M155.8,480.9c-6.6,1.1-11.1,8.8-8.5,14.1
		C150.1,490.3,152.8,485.9,155.8,480.9z M231.6,146c0.3-0.6,0.7-1.2,1-1.8c-3.9-5.1-9.8-6.3-16-6.7
		C221.6,140.3,226.6,143.2,231.6,146z M351.2,631.8c-5.8,3.7-5.6,7.6,0.4,12.5C351.5,639.3,351.3,635.5,351.2,631.8z M623.7,162.4
		c-10,2.7-12.4,6.2-8.1,10.8C618.1,169.9,620.5,166.6,623.7,162.4z M204.3,151.2c4.5,3.7,8.3,6.8,12.5,10.3
		C217.3,155.8,212.3,151.7,204.3,151.2z M146.5,693.1c-2.9-1.7-5-2.9-7.2-4.2c-0.6,1-1.8,2.7-1.6,2.9c1.8,1.7,3.9,3.2,6,4.6
		C143.8,696.4,145.1,694.8,146.5,693.1z M355.7,610.5c0.9-0.1,1.9-0.2,2.8-0.3c0-2.7,0.1-5.5-0.2-8.2c-0.1-0.7-1.7-1.7-2.5-1.6
		c-0.7,0.1-1.8,1.6-1.7,2.4C354.4,605.4,355.1,607.9,355.7,610.5z M277.3,648.8c0.8,0,1.6,0,2.4,0c0.4-2.2,1.2-4.4,1-6.6
		c-0.1-1.2-2-2.3-3.1-3.4c-0.6,0.3-1.2,0.6-1.8,0.9C276.3,642.8,276.8,645.8,277.3,648.8z M507.7,600.7c-6.3,0.3-7.9,3.6-5.1,10.8
		C504.5,607.4,506,604.3,507.7,600.7z M430.6,559.9c-0.5-0.2-1-0.5-1.4-0.7c-5.2,2.4-6,4.3-2.3,10
		C428.1,566.1,429.3,563,430.6,559.9z M880,530.7c-3.7,4.4-4,6.6-1.4,9.9C882.6,537.6,883,534.9,880,530.7z M171.8,697.3
		c0.8-0.4,1.5-0.7,2.3-1.1c-0.7-1.8-1.1-4-2.4-5.4c-0.8-1-2.8-0.9-4.3-1.3c-0.3,0.5-0.6,1-0.8,1.5
		C168.3,693,170.1,695.2,171.8,697.3z M800.5,560.3c-0.8,0.1-1.6,0.2-2.4,0.3c0.4,2.9,0.9,5.7,1.3,8.6
		C803.8,565.8,803.3,562.9,800.5,560.3z M853.6,516c-0.7,0-1.4,0.1-2.2,0.1c-0.1,3-0.2,5.9-0.3,8.9c0.6,0,1.1,0,1.7,0
		C855.3,522.1,856.3,519.1,853.6,516z M139.3,743.3c0.5-0.4,1.1-0.8,1.6-1.2c0.9-3.1-0.8-5-3.6-6.1c-0.6-0.2-1.7,0.9-2.6,1.4
		C136.2,739.4,137.7,741.4,139.3,743.3z M211.3,709.9c-2.2-1.3-3.6-2.1-5-2.9c-0.4,1.1-1.3,2.5-1,3.3c0.5,1.3,1.9,2.2,2.9,3.3
		C209.1,712.6,209.9,711.6,211.3,709.9z"/>
	<path id="XMLID_492_" d="M1322.4,966.3c-2.6-0.3-4.2-0.4-5.7-0.7c-46.8-11.7-94.4-15.1-142.4-12.4c-29.3,1.7-58.5,4.5-87.7,6.9
		c-27.4,2.2-54.8,4.6-82.3,6.8c-1.6,0.1-3.1-0.2-4.7-0.3c0-0.4,0-0.9-0.1-1.3c3.1-0.4,6.1-0.9,9.2-1.2c30.5-3.3,61.1-6.6,91.6-9.8
		c42.1-4.5,84.2-7.5,126.5-5.2c29.8,1.6,59.4,5.3,88.2,13.5c1.9,0.5,3.8,1.2,5.7,1.9C1320.9,964.4,1321.1,964.8,1322.4,966.3z"/>
	<path id="XMLID_491_" d="M50.9,965.9c13.1,19.7,24.8,40,39.2,58c14.5,18.1,31.7,34,47,50.1C118.7,1070.7,53.4,990.1,50.9,965.9z"/>
	<path id="XMLID_490_" d="M230.7,445.8c-1-25.1,47.8-117,70.1-131.6c-0.8,1.5-1.3,3.2-2.3,4.6c-23.6,30.5-43.7,63.2-57.9,99.2
		c-3.2,8-5.7,16.2-8.6,24.4C231.7,443.5,231.2,444.7,230.7,445.8z"/>
	<path id="XMLID_489_" d="M317.6,326.9c-17.6,41.4-30.3,84.2-36.5,130.1C274.8,440.9,304.6,335.2,317.6,326.9z"/>
	<path id="XMLID_488_" d="M328.8,443.5c-7.3-20.4-3.2-97.1,6.1-112.5C328.6,368.3,326.1,405.8,328.8,443.5z"/>
	<path id="XMLID_487_" d="M524.4,335.1c5.5,32.2,5.6,64.4-1.1,96.8c-0.2-0.5-0.7-1.1-0.7-1.6c3.9-31.7,3.1-63.5-0.7-95.2
		C522.8,335.1,523.6,335.1,524.4,335.1z"/>
	<path id="XMLID_486_" d="M409.2,334.1c8.2,1.4,16.2,3.6,24.3,4c8.1,0.4,16.2-0.8,25-1.4C452.6,346.5,420.4,345.4,409.2,334.1z"/>
	<path id="XMLID_485_" d="M486.3,398.7c-0.4,21.7-8,41-19.9,58.8c-0.5-0.1-1-0.2-1.5-0.3c0.2-1.2,0.2-2.5,0.8-3.5
		c9.3-16.5,15.6-33.9,17.9-52.8c0.1-0.9,0.6-1.8,0.9-2.6C485.1,398.4,485.7,398.5,486.3,398.7z"/>
	<path id="XMLID_484_" d="M472.2,332.8c-1,7-14.1,16.5-25.3,17.7c1.1-1.9,1.4-3.8,2.5-4.5c7-4.6,14.2-8.9,21.3-13.3
		C471.1,332.4,471.7,332.7,472.2,332.8z"/>
	<path id="XMLID_483_" d="M437.8,461.1c4.4-8.9,8.7-17.7,13.1-26.6C453.4,439.5,445.5,457.3,437.8,461.1z"/>
	<path id="XMLID_482_" d="M457.5,446.8c3.9-10,7.5-19.4,11.3-29.2C471.3,424.2,463.7,444.1,457.5,446.8z"/>
	<path id="XMLID_481_" d="M498.8,391.4c1.1,10.8-0.8,21.2-4.7,31.2c-0.5-0.1-1-0.2-1.5-0.2c1.6-10.4,3.1-20.8,4.7-31.1
		C497.7,391.3,498.3,391.4,498.8,391.4z"/>
	<path id="XMLID_480_" d="M582.4,184.4c4.2-7.2,21-7.2,27.7,0.2C600.3,181.5,591.4,180.9,582.4,184.4z"/>
	<path id="XMLID_479_" d="M484.7,329.2c-0.8,9-8.1,16.2-15,15.6C475,339.3,479.8,334.2,484.7,329.2z"/>
	<path id="XMLID_478_" d="M612.7,199.3c-7-2.7-14.1-5.4-21-8C597.2,187.6,609.2,192.2,612.7,199.3z"/>
	<path id="XMLID_477_" d="M485.5,342.4c3.4-6.5,6.4-12.5,9.4-18.3C498.3,328.1,492.2,340.9,485.5,342.4z"/>
	<path id="XMLID_397_" d="M416,223.4c4.9-3.3,10.6-6.1,10.1-13.3c-0.3-4.1-3-6.4-7.6-7.5c1,1.7,1.7,2.9,2.4,4.2
		c2.3,4.4,1.3,8-2.7,10.8c-2.3,1.6-4,1.4-5.8-1.1c-3.1-4.4-6.4-8.8-10-12.9c-4.9-5.6-4.8-9.7,1.8-13.2c9.2-4.9,18.7-9.2,28.2-13.3
		c6-2.6,12.3-5.3,18.7-6.4c9.6-1.6,18.1,3.1,26.5,6.9c8,3.7,15.8,7.7,23.5,12.1c5.5,3.2,6.6,7.1,5.5,11.3c-3.4,2.5-6,3.8-7.8,5.7
		c-3.3,3.6-6.1,7.6-9.3,11.6c-2.1-2.1-3.4-3.4-5-4.9c-2,3.2-0.5,5,1.5,6.9c4.2,4.1,4.2,7-1.4,8.7c-10.1,3.1-20.9,7.9-30.8,6.9
		c-12.7-1.3-25-7.7-37.4-12C416.2,224.2,416.1,223.7,416,223.4z"/>
	<path id="XMLID_396_" d="M502.7,260.9c-1.6-1.4-3.3-2.4-3.2-2.9c0.4-1.4,1.5-2.7,2.5-3.8c0.1-0.1,2.5,1.1,2.4,1.6
		C504.3,257.3,503.5,258.7,502.7,260.9z"/>
	<path id="XMLID_395_" d="M253,191.2c3.7-6.1,24.3-9.6,31.9-5.3C274,187.7,263.7,189.4,253,191.2z"/>
	<path id="XMLID_393_" d="M296.8,178.3c-10.4-1.5-20.4-2.9-30.4-4.3C271.2,169.4,290.8,172,296.8,178.3z"/>
	<path id="XMLID_392_" d="M273.3,199.8c-5.7,3.8-10.6,7.1-15.8,10.7C258.5,203.8,264.9,199.4,273.3,199.8z"/>
</g>
</svg>
